<?xml version="1.0" standalone="no"?>
<!DOCTYPE svg PUBLIC "-//W3C//DTD SVG 20010904//EN"
 "http://www.w3.org/TR/2001/REC-SVG-20010904/DTD/svg10.dtd">
<svg version="1.0" xmlns="http://www.w3.org/2000/svg"
 width="192.000000pt" height="192.000000pt" viewBox="0 0 192.000000 192.000000"
 preserveAspectRatio="xMidYMid meet">

<g transform="translate(0.000000,192.000000) scale(0.100000,-0.100000)"
fill="#000000" stroke="none">
<path d="M891 1543 c-45 -23 -71 -67 -71 -123 0 -56 27 -101 73 -123 46 -22
79 -21 125 2 90 46 98 173 15 235 -35 26 -100 31 -142 9z"/>
<path d="M560 1215 l-165 -165 89 0 89 0 105 104 106 104 -18 27 c-10 15 -23
42 -29 61 l-12 34 -165 -165z"/>
<path d="M1176 1354 c-4 -15 -16 -40 -27 -55 -10 -15 -19 -31 -19 -36 0 -4 46
-55 103 -111 l103 -103 87 3 87 3 -163 164 c-160 159 -164 162 -171 135z"/>
<path d="M890 1122 l0 -73 63 3 62 3 3 70 3 70 -66 0 -65 0 0 -73z"/>
<path d="M728 936 c-99 -27 -162 -106 -162 -206 0 -101 59 -176 161 -206 126
-37 250 33 284 159 30 111 -51 230 -172 256 -59 13 -51 13 -111 -3z m145 -126
c22 -25 27 -40 27 -81 0 -45 -4 -55 -34 -85 -28 -28 -42 -34 -76 -34 -34 0
-48 6 -76 34 -30 30 -34 41 -34 84 0 81 47 126 125 117 29 -3 48 -12 68 -35z"/>
<path d="M1090 738 l0 -218 55 0 55 0 0 97 0 97 53 -51 52 -52 58 50 57 51 0
-96 0 -96 55 0 55 0 0 216 0 216 -112 -107 -111 -107 -101 99 c-55 54 -104
103 -108 108 -4 6 -8 -88 -8 -207z"/>
<path d="M390 730 l0 -210 55 0 55 0 0 210 0 210 -55 0 -55 0 0 -210z"/>
</g>
</svg>
